<svg width="118" height="118" viewBox="0 0 118 118" fill="none" xmlns="http://www.w3.org/2000/svg">
<g filter="url(#filter0_bd_1_1145)">
<g filter="url(#filter1_d_1_1145)">
<rect x="17.2832" y="17.2858" width="75.4286" height="75.4286" rx="10" fill="url(#paint0_linear_1_1145)"/>
</g>
<g clip-path="url(#clip0_1_1145)">
<path d="M63.9746 69.0303C63.9746 69.9663 63.9746 70.8279 63.9746 71.6882C63.9746 73.1658 63.9786 74.6434 63.9746 76.121C63.9693 78.1575 62.7519 79.3816 60.7339 79.3829C53.6937 79.3829 46.6535 79.3842 39.6145 79.3829C37.6617 79.3829 36.4124 78.135 36.4097 76.1847C36.4071 74.7071 36.4084 73.2295 36.4097 71.7519C36.4097 70.9089 36.6208 70.6965 37.4665 70.6965C45.5662 70.6965 53.6671 70.6965 61.7668 70.6965C61.9792 70.6965 62.1916 70.6965 62.4412 70.6965V69.0941C62.408 69.0741 62.3815 69.0463 62.3522 69.0436C61.2039 68.9759 61.1707 68.9467 60.9822 67.7983C60.9689 67.716 60.9477 67.6324 60.9543 67.5514C61.026 66.6181 60.3927 66.3141 59.6625 66.1189C59.551 66.0897 59.3838 66.1561 59.2802 66.2318C58.8939 66.5159 58.5275 66.8292 58.1451 67.1199C57.7136 67.4492 57.3724 67.4399 56.9954 67.0708C56.3197 66.4097 55.6585 65.7352 54.9907 65.0648C54.6469 64.7196 54.6057 64.3506 54.8952 63.9496C55.0797 63.6947 55.2324 63.4106 55.4461 63.1836C55.8603 62.7429 55.8762 62.3326 55.6121 61.775C55.401 61.329 55.166 61.1471 54.7 61.1471C54.3548 61.1471 54.0083 61.086 53.6631 61.0395C53.1241 60.9652 52.8878 60.7236 52.8812 60.1925C52.8679 59.23 52.8772 58.2675 52.8785 57.3037C52.8785 56.8311 53.1308 56.5682 53.5808 56.4819C53.7919 56.4421 54.0043 56.3823 54.2181 56.381C55.0133 56.3744 55.5815 56.0797 55.6957 55.2234C55.7222 55.0255 55.709 54.776 55.6081 54.618C55.3691 54.2423 55.0611 53.9104 54.7903 53.5546C54.4385 53.0926 54.4491 52.7753 54.8474 52.3704C55.4979 51.7066 56.1537 51.0494 56.8149 50.3989C57.2145 50.0059 57.4893 49.986 57.9606 50.306C58.3442 50.5662 58.7053 50.8649 59.105 51.0945C59.2682 51.1875 59.5178 51.1888 59.7143 51.1556C60.5627 51.0082 60.8282 50.4294 60.7737 49.6368C60.7737 49.6209 60.7764 49.6037 60.7777 49.5877C60.8985 48.357 61.0008 48.2654 62.2421 48.2654C62.9868 48.2654 63.7329 48.2575 64.4777 48.2681C65.0858 48.2774 65.3022 48.4725 65.4124 49.0753C65.4548 49.3036 65.5212 49.5333 65.5199 49.763C65.5159 50.4573 65.7907 50.8742 66.501 51.0667C66.8608 51.1649 67.0957 51.2034 67.3772 50.9299C67.6852 50.6312 68.0383 50.379 68.3809 50.1174C68.7353 49.8466 69.0978 49.8625 69.4137 50.1719C70.1253 50.8662 70.8289 51.5711 71.5259 52.2814C71.8193 52.5801 71.8432 52.9253 71.6069 53.2771C71.441 53.524 71.2949 53.7949 71.0905 54.0073C70.6192 54.4958 70.5462 54.9738 70.8847 55.5938C71.0639 55.923 71.2033 56.1155 71.5923 56.1275C72.0211 56.1407 72.4473 56.2204 72.8748 56.2735C73.3421 56.3319 73.585 56.6027 73.5877 57.0727C73.593 58.0525 73.5917 59.0309 73.5877 60.0107C73.585 60.4328 73.366 60.697 72.9544 60.7807C72.4844 60.8763 72.0131 60.9785 71.5379 61.0316C71.2325 61.0661 71.1276 61.2228 70.975 61.4737C70.5594 62.1574 70.748 62.6406 71.2352 63.2075C72.203 64.3346 72.1698 64.3638 71.1197 65.4259C70.6417 65.9092 70.1691 66.3977 69.6832 66.8743C69.265 67.2832 68.9703 67.3045 68.4937 66.9805C68.3012 66.8504 68.0928 66.7349 67.9308 66.5743C67.413 66.0632 66.8833 65.9477 66.2209 66.3393C65.9514 66.4986 65.7761 66.6247 65.7575 66.9473C65.7376 67.3111 65.6779 67.6722 65.6434 68.036C65.5664 68.8392 65.3606 69.0264 64.5388 69.0303C64.3755 69.0303 64.2109 69.0303 63.9799 69.0303H63.9746ZM68.8429 65.3901C69.2956 64.9586 69.6978 64.5749 70.1134 64.178C69.8186 63.8023 69.5199 63.4053 69.204 63.0216C68.9398 62.7004 68.9318 62.3804 69.1031 62.0074C69.3434 61.4816 69.5757 60.9479 69.7496 60.3983C69.8943 59.9376 70.1625 59.7159 70.6271 59.6575C71.113 59.5951 71.5936 59.4942 72.0543 59.4132V57.6874C71.5259 57.6223 71.0334 57.5493 70.5395 57.5068C70.0988 57.4683 69.8731 57.228 69.7297 56.8244C69.5425 56.2961 69.3367 55.769 69.0805 55.2712C68.8707 54.8649 68.8787 54.525 69.1455 54.1639C69.4469 53.7564 69.731 53.3342 69.9567 53.0116C69.5398 52.5429 69.1681 52.1274 68.7911 51.7039C68.3809 52.0332 67.9879 52.3385 67.6069 52.6571C67.2736 52.9359 66.9444 52.9479 66.5528 52.7567C66.0496 52.5111 65.5332 52.2761 64.9981 52.1168C64.5308 51.9774 64.3078 51.7092 64.2441 51.2499C64.1896 50.8556 64.1286 50.4613 64.0396 50.075C64.0144 49.9621 63.8883 49.7922 63.8007 49.7882C63.2948 49.7603 62.7877 49.7749 62.2713 49.7749C62.2075 50.3192 62.1385 50.7945 62.1 51.2724C62.0615 51.7517 61.8132 52.0013 61.3632 52.15C60.8481 52.3199 60.3436 52.535 59.8604 52.7832C59.4581 52.9903 59.1169 52.989 58.7558 52.7155C58.3522 52.4089 57.9314 52.1248 57.5995 51.8898C57.1454 52.3186 56.7432 52.6996 56.329 53.0926C56.6104 53.4484 56.8865 53.8227 57.1906 54.1719C57.5304 54.5622 57.5543 54.9366 57.3087 55.3973C57.0618 55.8619 56.8587 56.3585 56.7113 56.8643C56.5772 57.3289 56.3183 57.5639 55.8563 57.6316C55.3704 57.7033 54.8872 57.7989 54.392 57.8852V59.6018C54.8978 59.6602 55.3864 59.7226 55.8762 59.7717C56.2984 59.8142 56.5586 60.012 56.7033 60.4328C56.8905 60.9785 57.1215 61.5122 57.3778 62.0299C57.5769 62.4322 57.5756 62.7787 57.3047 63.1398C57.0074 63.5354 56.7312 63.947 56.4737 64.3134C56.8905 64.7382 57.2795 65.1352 57.6911 65.5547C58.0628 65.2626 58.4571 64.9626 58.8381 64.6466C59.17 64.3705 59.4979 64.3439 59.8922 64.5298C60.4286 64.7834 60.9808 65.0104 61.5411 65.2042C61.9128 65.333 62.1226 65.5454 62.1823 65.9357C62.2606 66.4575 62.3629 66.9765 62.4558 67.5063H64.187C64.2427 66.9951 64.3012 66.5039 64.3463 66.0127C64.3875 65.564 64.6171 65.3038 65.0459 65.1538C65.5889 64.9639 66.1239 64.7382 66.6417 64.4847C67.0121 64.3028 67.3267 64.3001 67.6586 64.5471C68.0702 64.8524 68.4924 65.1431 68.8389 65.3901H68.8429ZM37.9006 72.2232C37.9006 73.6065 37.894 74.9634 37.9033 76.3188C37.9099 77.2508 38.5326 77.8801 39.4685 77.8801C46.6216 77.8854 53.7747 77.8854 60.9277 77.8801C61.865 77.8801 62.4638 77.2574 62.4731 76.3029C62.485 75.0417 62.477 73.7805 62.4731 72.5193C62.4731 72.425 62.4531 72.3307 62.4412 72.2219H37.9006V72.2232Z" fill="white"/>
<path d="M62.4736 38.5447H37.9011V39.1528C37.9011 48.5814 37.9011 58.0099 37.9011 67.4385C37.9011 68.2377 37.6582 68.6121 37.1457 68.6068C36.6359 68.6028 36.4062 68.2377 36.4062 67.4265C36.4062 56.5204 36.4062 45.6142 36.4062 34.708C36.4062 32.5918 37.6197 31.3784 39.7332 31.3784C46.7734 31.3784 53.8123 31.3771 60.8526 31.3784C62.3607 31.3784 63.5144 32.2374 63.8728 33.6247C63.9419 33.8942 63.9671 34.1809 63.9684 34.4611C63.9737 37.0339 63.9751 39.6068 63.9591 42.1797C63.9578 42.4107 63.8994 42.7227 63.7454 42.8515C63.5635 43.0041 63.2356 43.0825 62.9953 43.044C62.6249 42.9855 62.4789 42.6537 62.4762 42.2925C62.4682 41.2637 62.4722 40.2348 62.4722 39.2046C62.4722 38.9935 62.4722 38.7811 62.4722 38.5421L62.4736 38.5447ZM62.4151 36.9875C62.4417 36.9118 62.4629 36.8799 62.4629 36.8494C62.4669 36.1192 62.4736 35.3891 62.4722 34.6589C62.4709 33.4269 61.9173 32.8786 60.6773 32.8786C53.6729 32.8786 46.6686 32.8786 39.6628 32.8786C39.5301 32.8786 39.3973 32.8719 39.2659 32.8865C38.5955 32.9569 37.9861 33.4428 37.9396 34.1013C37.8732 35.0518 37.9224 36.0104 37.9224 36.9875H62.4151Z" fill="white"/>
<path d="M52.1634 40.3038C52.6559 40.2945 52.9759 40.8189 52.7356 41.4362C52.2085 42.7944 51.6655 44.1459 51.1292 45.4987C50.2636 47.6839 49.398 49.8678 48.5337 52.053C48.4966 52.1459 48.4647 52.2389 48.4236 52.3291C48.2111 52.7951 47.8368 52.9744 47.4292 52.8071C47.019 52.6398 46.857 52.2482 47.0389 51.7782C47.5606 50.436 48.097 49.1004 48.6267 47.7609C49.5228 45.5 50.4216 43.2391 51.3137 40.9756C51.4558 40.6131 51.6377 40.3197 52.1647 40.3011L52.1634 40.3038Z" fill="white"/>
<path d="M57.5512 46.6046C56.6776 45.7643 55.9129 45.0315 55.1496 44.2973C55.0301 44.1818 54.9093 44.0676 54.8031 43.9402C54.5203 43.599 54.5216 43.1927 54.7977 42.9046C55.0898 42.6006 55.5239 42.5807 55.8651 42.9007C56.3245 43.3308 56.7573 43.7901 57.2007 44.2389C57.7716 44.8164 58.3491 45.3899 58.9106 45.9754C59.3102 46.3922 59.3129 46.7799 58.908 47.1954C57.9242 48.2044 56.9312 49.2054 55.9328 50.1998C55.5492 50.5821 55.1137 50.5901 54.7964 50.2542C54.5004 49.9396 54.5123 49.5108 54.8787 49.1523C55.7324 48.3199 56.6033 47.5048 57.5499 46.6046H57.5512Z" fill="white"/>
<path d="M42.8688 46.5873C43.757 47.4449 44.5562 48.2163 45.3528 48.9889C45.459 49.0925 45.5718 49.1974 45.6488 49.3221C45.8572 49.6554 45.8453 49.9913 45.5585 50.2727C45.2731 50.5528 44.9 50.6139 44.6173 50.3378C43.5021 49.2505 42.4068 48.1406 41.3315 47.0148C41.0593 46.7307 41.1124 46.351 41.3886 46.0669C42.4294 44.9982 43.4769 43.9348 44.5363 42.8846C44.8456 42.578 45.2758 42.6045 45.5638 42.8873C45.8546 43.1727 45.8705 43.6281 45.5559 43.9587C44.8801 44.6663 44.1871 45.3566 43.4955 46.0483C43.3322 46.2116 43.1436 46.351 42.8675 46.5873H42.8688Z" fill="white"/>
<path d="M63.2179 54.6724C65.4164 54.6684 67.2047 56.4487 67.2033 58.6445C67.2033 60.8258 65.3832 62.6459 63.2166 62.6313C61.0446 62.6167 59.2723 60.839 59.2656 58.6684C59.259 56.454 61.0167 54.6777 63.2179 54.6724ZM63.9746 60.9386C65.054 60.6917 65.824 59.53 65.6925 58.4242C65.5319 57.0634 64.4685 56.1327 63.1196 56.1726C61.8956 56.2084 60.8481 57.2187 60.7645 58.4441C60.6835 59.623 61.4495 60.7581 62.4758 60.9306C62.4758 60.6611 62.4758 60.397 62.4758 60.1328C62.4771 59.469 62.4598 58.8038 62.489 58.1414C62.509 57.6847 62.8621 57.378 63.2644 57.3992C63.6533 57.4192 63.9374 57.7192 63.968 58.1586C63.9813 58.3564 63.9746 58.5569 63.9746 58.756C63.9746 59.4796 63.9746 60.2018 63.9746 60.9386Z" fill="white"/>
<path d="M50.2278 74.5731C51.2873 74.5731 52.3467 74.5677 53.4074 74.5757C54.0141 74.5797 54.3182 74.8399 54.3168 75.3205C54.3168 75.7944 53.9955 76.0719 53.4061 76.0732C51.27 76.0785 49.1339 76.0785 46.9978 76.0732C46.3898 76.0732 46.0393 75.7719 46.0552 75.2939C46.0698 74.8372 46.3977 74.5784 46.9991 74.5744C48.0758 74.5677 49.1512 74.5731 50.2278 74.5731Z" fill="white"/>
<path d="M50.2278 74.5731C51.2873 74.5731 52.3467 74.5677 53.4074 74.5757C54.0141 74.5797 54.3182 74.8399 54.3168 75.3205C54.3168 75.7944 53.9955 76.0719 53.4061 76.0732C51.27 76.0785 49.1339 76.0785 46.9978 76.0732C46.3898 76.0732 46.0393 75.7719 46.0552 75.2939C46.0698 74.8372 46.3977 74.5784 46.9991 74.5744C48.0758 74.5677 49.1512 74.5731 50.2278 74.5731Z" fill="white"/>
<path d="M52.0825 35.6826C51.4705 35.6826 50.8571 35.6932 50.2451 35.6799C49.7751 35.6693 49.4618 35.3772 49.4459 34.9683C49.43 34.5648 49.7366 34.205 50.192 34.197C51.4665 34.1758 52.741 34.1744 54.0155 34.1997C54.4775 34.209 54.7536 34.5634 54.7284 34.9896C54.7045 35.4011 54.4323 35.6667 53.9703 35.6773C53.3411 35.6932 52.7118 35.6813 52.0825 35.6813V35.6826Z" fill="white"/>
</g>
</g>
<defs>
<filter id="filter0_bd_1_1145" x="12.2832" y="13.2858" width="85.4285" height="88.4286" filterUnits="userSpaceOnUse" color-interpolation-filters="sRGB">
<feFlood flood-opacity="0" result="BackgroundImageFix"/>
<feGaussianBlur in="BackgroundImageFix" stdDeviation="2"/>
<feComposite in2="SourceAlpha" operator="in" result="effect1_backgroundBlur_1_1145"/>
<feColorMatrix in="SourceAlpha" type="matrix" values="0 0 0 0 0 0 0 0 0 0 0 0 0 0 0 0 0 0 127 0" result="hardAlpha"/>
<feOffset dy="4"/>
<feGaussianBlur stdDeviation="2.5"/>
<feComposite in2="hardAlpha" operator="out"/>
<feColorMatrix type="matrix" values="0 0 0 0 0.756863 0 0 0 0 0.054902 0 0 0 0 1 0 0 0 0.2 0"/>
<feBlend mode="normal" in2="effect1_backgroundBlur_1_1145" result="effect2_dropShadow_1_1145"/>
<feBlend mode="normal" in="SourceGraphic" in2="effect2_dropShadow_1_1145" result="shape"/>
</filter>
<filter id="filter1_d_1_1145" x="0.283203" y="0.285767" width="117.428" height="117.429" filterUnits="userSpaceOnUse" color-interpolation-filters="sRGB">
<feFlood flood-opacity="0" result="BackgroundImageFix"/>
<feColorMatrix in="SourceAlpha" type="matrix" values="0 0 0 0 0 0 0 0 0 0 0 0 0 0 0 0 0 0 127 0" result="hardAlpha"/>
<feMorphology radius="8" operator="dilate" in="SourceAlpha" result="effect1_dropShadow_1_1145"/>
<feOffset dx="4" dy="4"/>
<feGaussianBlur stdDeviation="6.5"/>
<feComposite in2="hardAlpha" operator="out"/>
<feColorMatrix type="matrix" values="0 0 0 0 0.0901961 0 0 0 0 0.501961 0 0 0 0 0.698039 0 0 0 0.25 0"/>
<feBlend mode="normal" in2="BackgroundImageFix" result="effect1_dropShadow_1_1145"/>
<feBlend mode="normal" in="SourceGraphic" in2="effect1_dropShadow_1_1145" result="shape"/>
</filter>
<linearGradient id="paint0_linear_1_1145" x1="92.7118" y1="64.5694" x2="17.2808" y2="64.6833" gradientUnits="userSpaceOnUse">
<stop offset="0.354167" stop-color="#262666"/>
<stop offset="1" stop-color="#1780B2"/>
</linearGradient>
<clipPath id="clip0_1_1145">
<rect width="37.7143" height="48.5342" fill="white" transform="translate(36.1406 31.1143)"/>
</clipPath>
</defs>
</svg>
