<svg width="66" height="73" viewBox="0 0 66 73" fill="none" xmlns="http://www.w3.org/2000/svg">
<g clip-path="url(#clip0_1_1870)">
<path d="M14.1601 51.2119L7.07975 68.4574L0 51.2119H3.30329L7.07975 60.7999L10.8568 51.2119H14.1601Z" fill="#1780B2"/>
<path d="M18.0002 54.1818V57.0823H23.6285V60.0522H18.0002V63.8612H23.8035V66.8311H14.9453V51.2119H23.8035V54.1818H18.0002Z" fill="#1780B2"/>
<path d="M37.5188 66.8311H34.0725L31.1204 61.5962L28.0477 66.8311H24.5898L29.4244 58.6957L25.1735 51.2119H28.6192L31.2194 55.8023L33.879 51.2119H37.3375L32.8969 58.7047L37.5188 66.8311Z" fill="#1780B2"/>
<path d="M41.3387 54.1818V57.0823H46.967V60.0522H41.3387V63.8612H47.1413V66.8311H38.2832V51.2119H47.1413V54.1818H41.3387Z" fill="#1780B2"/>
<path d="M57.041 52.8006C55.3661 51.5367 53.5679 51.2773 51.3834 51.2773H47.9141V66.8965H51.3399C53.5404 66.8965 55.156 66.6521 56.9018 65.4019C58.9005 63.972 60.0008 61.7329 60.0008 59.0983C60.0008 56.4636 58.9229 54.2395 57.041 52.8006ZM55.1285 62.9682C54.0066 63.8132 52.672 63.9266 51.5143 63.9266H50.9696V54.2472H51.5143C52.6145 54.2472 54.0219 54.3536 55.1528 55.1855C56.0193 55.8269 56.9459 57.1918 56.9459 59.0983C56.9459 61.3238 55.672 62.5487 55.1285 62.9682Z" fill="#1780B2"/>
</g>
<path d="M16.4574 70.3636C16.4446 70.2557 16.3928 70.1719 16.3018 70.1122C16.2109 70.0526 16.0994 70.0227 15.9673 70.0227C15.8707 70.0227 15.7862 70.0384 15.7138 70.0696C15.642 70.1009 15.5859 70.1438 15.5455 70.1985C15.5057 70.2532 15.4858 70.3153 15.4858 70.3849C15.4858 70.4432 15.4996 70.4933 15.5273 70.5352C15.5558 70.5763 15.592 70.6108 15.636 70.6385C15.68 70.6655 15.7262 70.6879 15.7745 70.7056C15.8228 70.7227 15.8672 70.7365 15.9077 70.7472L16.1293 70.8068C16.1861 70.8217 16.2493 70.8423 16.3189 70.8686C16.3892 70.8949 16.4563 70.9308 16.5202 70.9762C16.5849 71.021 16.6381 71.0785 16.68 71.1488C16.7219 71.2191 16.7429 71.3054 16.7429 71.4077C16.7429 71.5256 16.712 71.6321 16.6502 71.7273C16.5891 71.8224 16.4996 71.8981 16.3817 71.9542C16.2646 72.0103 16.1222 72.0384 15.9545 72.0384C15.7983 72.0384 15.663 72.0131 15.5487 71.9627C15.435 71.9123 15.3455 71.842 15.2802 71.7518C15.2156 71.6616 15.179 71.5568 15.1705 71.4375H15.4432C15.4503 71.5199 15.478 71.5881 15.5263 71.642C15.5753 71.6953 15.6371 71.7351 15.7116 71.7614C15.7869 71.7869 15.8679 71.7997 15.9545 71.7997C16.0554 71.7997 16.146 71.7834 16.2262 71.7507C16.3065 71.7173 16.37 71.6712 16.4169 71.6122C16.4638 71.5526 16.4872 71.483 16.4872 71.4034C16.4872 71.331 16.467 71.272 16.4265 71.2266C16.386 71.1811 16.3327 71.1442 16.2667 71.1158C16.2006 71.0874 16.1293 71.0625 16.0526 71.0412L15.7841 70.9645C15.6136 70.9155 15.4787 70.8455 15.3793 70.7546C15.2798 70.6637 15.2301 70.5447 15.2301 70.3977C15.2301 70.2756 15.2631 70.169 15.3292 70.0781C15.396 69.9865 15.4854 69.9155 15.5977 69.8651C15.7106 69.8139 15.8366 69.7884 15.9759 69.7884C16.1165 69.7884 16.2415 69.8136 16.3509 69.864C16.4602 69.9137 16.5469 69.9819 16.6108 70.0685C16.6754 70.1552 16.7095 70.2536 16.7131 70.3636H16.4574ZM21.4482 70.9091C21.4482 71.1392 21.4067 71.3381 21.3236 71.5057C21.2405 71.6733 21.1265 71.8026 20.9816 71.8935C20.8367 71.9844 20.6712 72.0298 20.4851 72.0298C20.2991 72.0298 20.1336 71.9844 19.9887 71.8935C19.8438 71.8026 19.7298 71.6733 19.6467 71.5057C19.5636 71.3381 19.5221 71.1392 19.5221 70.9091C19.5221 70.679 19.5636 70.4801 19.6467 70.3125C19.7298 70.1449 19.8438 70.0156 19.9887 69.9247C20.1336 69.8338 20.2991 69.7884 20.4851 69.7884C20.6712 69.7884 20.8367 69.8338 20.9816 69.9247C21.1265 70.0156 21.2405 70.1449 21.3236 70.3125C21.4067 70.4801 21.4482 70.679 21.4482 70.9091ZM21.1925 70.9091C21.1925 70.7202 21.1609 70.5607 21.0977 70.4308C21.0352 70.3008 20.9503 70.2024 20.8431 70.1357C20.7366 70.0689 20.6172 70.0355 20.4851 70.0355C20.353 70.0355 20.2334 70.0689 20.1261 70.1357C20.0196 70.2024 19.9347 70.3008 19.8715 70.4308C19.809 70.5607 19.7777 70.7202 19.7777 70.9091C19.7777 71.098 19.809 71.2575 19.8715 71.3874C19.9347 71.5174 20.0196 71.6158 20.1261 71.6825C20.2334 71.7493 20.353 71.7827 20.4851 71.7827C20.6172 71.7827 20.7366 71.7493 20.8431 71.6825C20.9503 71.6158 21.0352 71.5174 21.0977 71.3874C21.1609 71.2575 21.1925 71.098 21.1925 70.9091ZM24.3224 72V69.8182H24.5867V71.7656H25.6009V72H24.3224ZM29.8718 69.8182H30.136V71.2628C30.136 71.4119 30.1008 71.5451 30.0305 71.6623C29.9609 71.7788 29.8625 71.8707 29.7354 71.9382C29.6083 72.005 29.4591 72.0384 29.288 72.0384C29.1168 72.0384 28.9676 72.005 28.8405 71.9382C28.7134 71.8707 28.6147 71.7788 28.5444 71.6623C28.4747 71.5451 28.4399 71.4119 28.4399 71.2628V69.8182H28.7042V71.2415C28.7042 71.348 28.7276 71.4428 28.7745 71.5259C28.8213 71.6083 28.8881 71.6733 28.9747 71.7209C29.0621 71.7678 29.1665 71.7912 29.288 71.7912C29.4094 71.7912 29.5138 71.7678 29.6012 71.7209C29.6885 71.6733 29.7553 71.6083 29.8015 71.5259C29.8483 71.4428 29.8718 71.348 29.8718 71.2415V69.8182ZM32.9743 70.0526V69.8182H34.6106V70.0526H33.9245V72H33.6603V70.0526H32.9743ZM37.7126 69.8182V72H37.4484V69.8182H37.7126ZM42.5132 70.9091C42.5132 71.1392 42.4717 71.3381 42.3886 71.5057C42.3055 71.6733 42.1915 71.8026 42.0466 71.8935C41.9017 71.9844 41.7362 72.0298 41.5502 72.0298C41.3641 72.0298 41.1986 71.9844 41.0537 71.8935C40.9088 71.8026 40.7948 71.6733 40.7117 71.5057C40.6287 71.3381 40.5871 71.1392 40.5871 70.9091C40.5871 70.679 40.6287 70.4801 40.7117 70.3125C40.7948 70.1449 40.9088 70.0156 41.0537 69.9247C41.1986 69.8338 41.3641 69.7884 41.5502 69.7884C41.7362 69.7884 41.9017 69.8338 42.0466 69.9247C42.1915 70.0156 42.3055 70.1449 42.3886 70.3125C42.4717 70.4801 42.5132 70.679 42.5132 70.9091ZM42.2576 70.9091C42.2576 70.7202 42.226 70.5607 42.1627 70.4308C42.1002 70.3008 42.0154 70.2024 41.9081 70.1357C41.8016 70.0689 41.6823 70.0355 41.5502 70.0355C41.4181 70.0355 41.2984 70.0689 41.1912 70.1357C41.0846 70.2024 40.9997 70.3008 40.9365 70.4308C40.874 70.5607 40.8428 70.7202 40.8428 70.9091C40.8428 71.098 40.874 71.2575 40.9365 71.3874C40.9997 71.5174 41.0846 71.6158 41.1912 71.6825C41.2984 71.7493 41.4181 71.7827 41.5502 71.7827C41.6823 71.7827 41.8016 71.7493 41.9081 71.6825C42.0154 71.6158 42.1002 71.5174 42.1627 71.3874C42.226 71.2575 42.2576 71.098 42.2576 70.9091ZM47.1176 69.8182V72H46.8619L45.673 70.2869H45.6517V72H45.3875V69.8182H45.6432L46.8363 71.5355H46.8577V69.8182H47.1176ZM51.2695 70.3636C51.2567 70.2557 51.2048 70.1719 51.1139 70.1122C51.023 70.0526 50.9115 70.0227 50.7794 70.0227C50.6828 70.0227 50.5983 70.0384 50.5259 70.0696C50.4541 70.1009 50.398 70.1438 50.3575 70.1985C50.3178 70.2532 50.2979 70.3153 50.2979 70.3849C50.2979 70.4432 50.3117 70.4933 50.3394 70.5352C50.3678 70.5763 50.404 70.6108 50.4481 70.6385C50.4921 70.6655 50.5383 70.6879 50.5866 70.7056C50.6349 70.7227 50.6793 70.7365 50.7197 70.7472L50.9413 70.8068C50.9982 70.8217 51.0614 70.8423 51.131 70.8686C51.2013 70.8949 51.2684 70.9308 51.3323 70.9762C51.3969 71.021 51.4502 71.0785 51.4921 71.1488C51.534 71.2191 51.555 71.3054 51.555 71.4077C51.555 71.5256 51.5241 71.6321 51.4623 71.7273C51.4012 71.8224 51.3117 71.8981 51.1938 71.9542C51.0766 72.0103 50.9342 72.0384 50.7666 72.0384C50.6104 72.0384 50.4751 72.0131 50.3607 71.9627C50.2471 71.9123 50.1576 71.842 50.0923 71.7518C50.0276 71.6616 49.9911 71.5568 49.9825 71.4375H50.2553C50.2624 71.5199 50.2901 71.5881 50.3384 71.642C50.3874 71.6953 50.4491 71.7351 50.5237 71.7614C50.599 71.7869 50.68 71.7997 50.7666 71.7997C50.8675 71.7997 50.958 71.7834 51.0383 71.7507C51.1185 71.7173 51.1821 71.6712 51.229 71.6122C51.2759 71.5526 51.2993 71.483 51.2993 71.4034C51.2993 71.331 51.279 71.272 51.2386 71.2266C51.1981 71.1811 51.1448 71.1442 51.0788 71.1158C51.0127 71.0874 50.9413 71.0625 50.8646 71.0412L50.5962 70.9645C50.4257 70.9155 50.2908 70.8455 50.1913 70.7546C50.0919 70.6637 50.0422 70.5447 50.0422 70.3977C50.0422 70.2756 50.0752 70.169 50.1413 70.0781C50.208 69.9865 50.2975 69.9155 50.4097 69.8651C50.5227 69.8139 50.6487 69.7884 50.7879 69.7884C50.9286 69.7884 51.0536 69.8136 51.1629 69.864C51.2723 69.9137 51.3589 69.9819 51.4229 70.0685C51.4875 70.1552 51.5216 70.2536 51.5251 70.3636H51.2695Z" fill="#1780B2"/>
<g filter="url(#filter0_d_1_1870)">
<path d="M27.6098 17.4525L27.5979 17.2289L39.9136 17.4231L38.0873 20.4582L27.6098 17.4525Z" fill="url(#paint0_linear_1_1870)"/>
</g>
<g filter="url(#filter1_d_1_1870)">
<path d="M42.9089 13.5358L39.9598 17.391L27.6486 17.3265L30.5641 13.7833L42.9089 13.5358Z" fill="url(#paint1_linear_1_1870)"/>
</g>
<g filter="url(#filter2_d_1_1870)">
<path d="M49.1777 13.4463L45.0159 20.3628L41.1804 26.7369L35.374 24.7209L42.1473 13.4645L49.1777 13.4463Z" fill="url(#paint2_linear_1_1870)"/>
</g>
<g filter="url(#filter3_d_1_1870)">
<path d="M10.8086 13.6875H18.8808H26.3198L27.5861 19.7021H14.449L10.8086 13.6875Z" fill="url(#paint3_linear_1_1870)"/>
</g>
<g filter="url(#filter4_d_1_1870)">
<path d="M25.3617 30.1016L25.1762 30.2271L18.9929 19.5744L22.535 19.5744L25.3617 30.1016Z" fill="url(#paint4_linear_1_1870)"/>
</g>
<g filter="url(#filter5_d_1_1870)">
<path d="M14.1172 19.0134L18.941 19.5527L25.2332 30.1346L20.694 29.4634L14.1172 19.0134Z" fill="url(#paint5_linear_1_1870)"/>
</g>
<g filter="url(#filter6_d_1_1870)">
<path d="M37.465 26.0892L37.6624 26.1948L31.1174 36.6292L29.4671 33.495L37.465 26.0892Z" fill="url(#paint6_linear_1_1870)"/>
</g>
<g filter="url(#filter7_d_1_1870)">
<path d="M32.8905 41.2044L31.1202 36.6849L37.5519 26.1872L39.0728 30.5164L32.8905 41.2044Z" fill="url(#paint7_linear_1_1870)"/>
</g>
<g filter="url(#filter8_d_1_1870)">
<path d="M29.7207 46.6133L25.9598 39.4707L22.494 32.8884L27.2259 28.9658L33.3465 40.5899L29.7207 46.6133Z" fill="url(#paint8_linear_1_1870)"/>
</g>
<defs>
<filter id="filter0_d_1_1870" x="6.5979" y="0.228516" width="46.3157" height="37.2295" filterUnits="userSpaceOnUse" color-interpolation-filters="sRGB">
<feFlood flood-opacity="0" result="BackgroundImageFix"/>
<feColorMatrix in="SourceAlpha" type="matrix" values="0 0 0 0 0 0 0 0 0 0 0 0 0 0 0 0 0 0 127 0" result="hardAlpha"/>
<feOffset dx="-4"/>
<feGaussianBlur stdDeviation="8.5"/>
<feComposite in2="hardAlpha" operator="out"/>
<feColorMatrix type="matrix" values="0 0 0 0 0.270588 0 0 0 0 0.619608 0 0 0 0 0.839216 0 0 0 1 0"/>
<feBlend mode="normal" in2="BackgroundImageFix" result="effect1_dropShadow_1_1870"/>
<feBlend mode="normal" in="SourceGraphic" in2="effect1_dropShadow_1_1870" result="shape"/>
</filter>
<filter id="filter1_d_1_1870" x="27.6487" y="13.5361" width="23.2603" height="11.8545" filterUnits="userSpaceOnUse" color-interpolation-filters="sRGB">
<feFlood flood-opacity="0" result="BackgroundImageFix"/>
<feColorMatrix in="SourceAlpha" type="matrix" values="0 0 0 0 0 0 0 0 0 0 0 0 0 0 0 0 0 0 127 0" result="hardAlpha"/>
<feOffset dx="4" dy="4"/>
<feGaussianBlur stdDeviation="2"/>
<feComposite in2="hardAlpha" operator="out"/>
<feColorMatrix type="matrix" values="0 0 0 0 0 0 0 0 0 0 0 0 0 0 0 0 0 0 0.25 0"/>
<feBlend mode="normal" in2="BackgroundImageFix" result="effect1_dropShadow_1_1870"/>
<feBlend mode="normal" in="SourceGraphic" in2="effect1_dropShadow_1_1870" result="shape"/>
</filter>
<filter id="filter2_d_1_1870" x="35.374" y="13.4463" width="21.8037" height="21.291" filterUnits="userSpaceOnUse" color-interpolation-filters="sRGB">
<feFlood flood-opacity="0" result="BackgroundImageFix"/>
<feColorMatrix in="SourceAlpha" type="matrix" values="0 0 0 0 0 0 0 0 0 0 0 0 0 0 0 0 0 0 127 0" result="hardAlpha"/>
<feOffset dx="4" dy="4"/>
<feGaussianBlur stdDeviation="2"/>
<feComposite in2="hardAlpha" operator="out"/>
<feColorMatrix type="matrix" values="0 0 0 0 0 0 0 0 0 0 0 0 0 0 0 0 0 0 0.25 0"/>
<feBlend mode="normal" in2="BackgroundImageFix" result="effect1_dropShadow_1_1870"/>
<feBlend mode="normal" in="SourceGraphic" in2="effect1_dropShadow_1_1870" result="shape"/>
</filter>
<filter id="filter3_d_1_1870" x="10.8086" y="13.6875" width="24.7773" height="14.0146" filterUnits="userSpaceOnUse" color-interpolation-filters="sRGB">
<feFlood flood-opacity="0" result="BackgroundImageFix"/>
<feColorMatrix in="SourceAlpha" type="matrix" values="0 0 0 0 0 0 0 0 0 0 0 0 0 0 0 0 0 0 127 0" result="hardAlpha"/>
<feOffset dx="4" dy="4"/>
<feGaussianBlur stdDeviation="2"/>
<feComposite in2="hardAlpha" operator="out"/>
<feColorMatrix type="matrix" values="0 0 0 0 0 0 0 0 0 0 0 0 0 0 0 0 0 0 0.25 0"/>
<feBlend mode="normal" in2="BackgroundImageFix" result="effect1_dropShadow_1_1870"/>
<feBlend mode="normal" in="SourceGraphic" in2="effect1_dropShadow_1_1870" result="shape"/>
</filter>
<filter id="filter4_d_1_1870" x="18.9929" y="19.5742" width="14.3689" height="18.6533" filterUnits="userSpaceOnUse" color-interpolation-filters="sRGB">
<feFlood flood-opacity="0" result="BackgroundImageFix"/>
<feColorMatrix in="SourceAlpha" type="matrix" values="0 0 0 0 0 0 0 0 0 0 0 0 0 0 0 0 0 0 127 0" result="hardAlpha"/>
<feOffset dx="4" dy="4"/>
<feGaussianBlur stdDeviation="2"/>
<feComposite in2="hardAlpha" operator="out"/>
<feColorMatrix type="matrix" values="0 0 0 0 0 0 0 0 0 0 0 0 0 0 0 0 0 0 0.25 0"/>
<feBlend mode="normal" in2="BackgroundImageFix" result="effect1_dropShadow_1_1870"/>
<feBlend mode="normal" in="SourceGraphic" in2="effect1_dropShadow_1_1870" result="shape"/>
</filter>
<filter id="filter5_d_1_1870" x="14.1172" y="19.0137" width="19.116" height="19.1211" filterUnits="userSpaceOnUse" color-interpolation-filters="sRGB">
<feFlood flood-opacity="0" result="BackgroundImageFix"/>
<feColorMatrix in="SourceAlpha" type="matrix" values="0 0 0 0 0 0 0 0 0 0 0 0 0 0 0 0 0 0 127 0" result="hardAlpha"/>
<feOffset dx="4" dy="4"/>
<feGaussianBlur stdDeviation="2"/>
<feComposite in2="hardAlpha" operator="out"/>
<feColorMatrix type="matrix" values="0 0 0 0 0 0 0 0 0 0 0 0 0 0 0 0 0 0 0.25 0"/>
<feBlend mode="normal" in2="BackgroundImageFix" result="effect1_dropShadow_1_1870"/>
<feBlend mode="normal" in="SourceGraphic" in2="effect1_dropShadow_1_1870" result="shape"/>
</filter>
<filter id="filter6_d_1_1870" x="8.46704" y="5.08887" width="42.1953" height="44.54" filterUnits="userSpaceOnUse" color-interpolation-filters="sRGB">
<feFlood flood-opacity="0" result="BackgroundImageFix"/>
<feColorMatrix in="SourceAlpha" type="matrix" values="0 0 0 0 0 0 0 0 0 0 0 0 0 0 0 0 0 0 127 0" result="hardAlpha"/>
<feOffset dx="-4" dy="-4"/>
<feGaussianBlur stdDeviation="8.5"/>
<feComposite in2="hardAlpha" operator="out"/>
<feColorMatrix type="matrix" values="0 0 0 0 0.270588 0 0 0 0 0.619608 0 0 0 0 0.839216 0 0 0 1 0"/>
<feBlend mode="normal" in2="BackgroundImageFix" result="effect1_dropShadow_1_1870"/>
<feBlend mode="normal" in="SourceGraphic" in2="effect1_dropShadow_1_1870" result="shape"/>
</filter>
<filter id="filter7_d_1_1870" x="23.1201" y="18.1875" width="15.9526" height="23.0166" filterUnits="userSpaceOnUse" color-interpolation-filters="sRGB">
<feFlood flood-opacity="0" result="BackgroundImageFix"/>
<feColorMatrix in="SourceAlpha" type="matrix" values="0 0 0 0 0 0 0 0 0 0 0 0 0 0 0 0 0 0 127 0" result="hardAlpha"/>
<feOffset dx="-4" dy="-4"/>
<feGaussianBlur stdDeviation="2"/>
<feComposite in2="hardAlpha" operator="out"/>
<feColorMatrix type="matrix" values="0 0 0 0 0 0 0 0 0 0 0 0 0 0 0 0 0 0 0.25 0"/>
<feBlend mode="normal" in2="BackgroundImageFix" result="effect1_dropShadow_1_1870"/>
<feBlend mode="normal" in="SourceGraphic" in2="effect1_dropShadow_1_1870" result="shape"/>
</filter>
<filter id="filter8_d_1_1870" x="22.4939" y="28.9658" width="18.8525" height="25.6475" filterUnits="userSpaceOnUse" color-interpolation-filters="sRGB">
<feFlood flood-opacity="0" result="BackgroundImageFix"/>
<feColorMatrix in="SourceAlpha" type="matrix" values="0 0 0 0 0 0 0 0 0 0 0 0 0 0 0 0 0 0 127 0" result="hardAlpha"/>
<feOffset dx="4" dy="4"/>
<feGaussianBlur stdDeviation="2"/>
<feComposite in2="hardAlpha" operator="out"/>
<feColorMatrix type="matrix" values="0 0 0 0 0 0 0 0 0 0 0 0 0 0 0 0 0 0 0.25 0"/>
<feBlend mode="normal" in2="BackgroundImageFix" result="effect1_dropShadow_1_1870"/>
<feBlend mode="normal" in="SourceGraphic" in2="effect1_dropShadow_1_1870" result="shape"/>
</filter>
<linearGradient id="paint0_linear_1_1870" x1="26.1058" y1="18.2421" x2="35.8505" y2="18.6208" gradientUnits="userSpaceOnUse">
<stop stop-color="#1780B2"/>
<stop offset="1" stop-color="#262666"/>
</linearGradient>
<linearGradient id="paint1_linear_1_1870" x1="44.1218" y1="14.5445" x2="28.4057" y2="17.5502" gradientUnits="userSpaceOnUse">
<stop stop-color="#1780B2"/>
<stop offset="1" stop-color="#262666"/>
</linearGradient>
<linearGradient id="paint2_linear_1_1870" x1="37.3341" y1="16.1998" x2="39.9797" y2="20.0101" gradientUnits="userSpaceOnUse">
<stop stop-color="#1780B2"/>
<stop offset="0.989583" stop-color="#262666"/>
</linearGradient>
<linearGradient id="paint3_linear_1_1870" x1="19.2743" y1="22.4159" x2="21.1751" y2="18.1846" gradientUnits="userSpaceOnUse">
<stop stop-color="#1780B2"/>
<stop offset="0.989583" stop-color="#262666"/>
</linearGradient>
<linearGradient id="paint4_linear_1_1870" x1="27.7573" y1="29.672" x2="19.3769" y2="19.9554" gradientUnits="userSpaceOnUse">
<stop stop-color="#1780B2"/>
<stop offset="1" stop-color="#262666"/>
</linearGradient>
<linearGradient id="paint5_linear_1_1870" x1="14.3561" y1="17.4541" x2="25.0345" y2="29.3705" gradientUnits="userSpaceOnUse">
<stop stop-color="#1780B2"/>
<stop offset="1" stop-color="#262666"/>
</linearGradient>
<linearGradient id="paint6_linear_1_1870" x1="37.5686" y1="24.3937" x2="32.1973" y2="32.5333" gradientUnits="userSpaceOnUse">
<stop stop-color="#1780B2"/>
<stop offset="1" stop-color="#262666"/>
</linearGradient>
<linearGradient id="paint7_linear_1_1870" x1="42.2094" y1="20.8389" x2="39.7328" y2="20.0497" gradientUnits="userSpaceOnUse">
<stop stop-color="#1780B2"/>
<stop offset="0.989583" stop-color="#262666"/>
</linearGradient>
<linearGradient id="paint8_linear_1_1870" x1="33.4997" y1="35.0559" x2="28.87" y2="35.3454" gradientUnits="userSpaceOnUse">
<stop stop-color="#1780B2"/>
<stop offset="0.989583" stop-color="#262666"/>
</linearGradient>
<clipPath id="clip0_1_1870">
<rect width="60" height="17.2455" fill="white" transform="translate(0 51.2119)"/>
</clipPath>
</defs>
</svg>
