<svg width="129" height="57" viewBox="0 0 129 57" fill="none" xmlns="http://www.w3.org/2000/svg">
<g clip-path="url(#clip0_1_1849)">
<path d="M80.6166 20.9607C80.5681 21.1209 80.524 21.283 80.4704 21.4419C80.1085 22.5135 79.1416 23.2411 77.9736 23.2999C77.5185 23.3228 77.0609 23.3152 76.6046 23.3062C76.2631 23.2999 76.0589 23.0969 76.0697 22.8059C76.0806 22.5244 76.274 22.3584 76.6109 22.3546C77.0143 22.3501 77.4177 22.3597 77.8211 22.3514C78.9048 22.3297 79.6541 21.5715 79.6592 20.4903C79.6624 19.7576 79.6566 19.0255 79.6541 18.2928C79.6541 18.2737 79.6388 18.2552 79.6228 18.2182H48.9801C48.9731 18.2954 48.959 18.3764 48.9584 18.4575C48.9565 19.1474 48.9526 19.8374 48.9584 20.528C48.9673 21.544 49.6917 22.2959 50.7059 22.3495C50.8329 22.3559 50.9606 22.3533 51.0882 22.3533C58.6999 22.3533 66.3116 22.3533 73.9239 22.3533C74.0197 22.3533 74.1148 22.3514 74.2105 22.3533C74.5335 22.3623 74.7434 22.5429 74.7485 22.8148C74.7543 23.086 74.5475 23.2916 74.2303 23.3043C73.9335 23.3164 73.6361 23.3081 73.3387 23.3081C71.8101 23.3081 70.2815 23.3081 68.7522 23.3081H68.3642C68.5927 24.2783 68.8129 25.2127 69.0395 26.1719C69.3279 26.1719 69.6024 26.1656 69.8768 26.1732C70.5278 26.1911 70.988 26.6538 71.0065 27.3074C71.0129 27.5301 71.0142 27.7535 71.004 27.9763C70.9778 28.5615 70.5342 29.0147 69.9534 29.0574C69.8475 29.0651 69.7415 29.0651 69.6349 29.0651C66.0786 29.0651 62.5223 29.0638 58.9654 29.0677C58.5812 29.0677 58.227 29.0179 57.9417 28.7288C57.4662 28.2469 57.4368 26.9806 57.9404 26.5281C58.144 26.3449 58.451 26.2447 58.728 26.1847C58.9903 26.1279 59.275 26.1726 59.5762 26.1726C59.8015 25.221 60.0223 24.2866 60.254 23.3081C60.0964 23.3081 59.9726 23.3081 59.8481 23.3081C56.8541 23.3081 53.8607 23.312 50.8667 23.3062C49.5086 23.3037 48.4401 22.5206 48.107 21.2875C48.0412 21.0443 48.0055 20.7858 48.0049 20.5343C48.001 16.1094 48.0023 11.6825 48.0023 7.25568C48.0023 7.2027 47.9991 7.14909 48.0061 7.09676C48.0431 6.82742 48.2027 6.67615 48.4695 6.65764C48.721 6.63977 48.9258 6.83699 48.9533 7.10824C48.9629 7.2027 48.9571 7.29908 48.9571 7.39481C48.9571 10.5375 48.9571 13.6796 48.9571 16.8223C48.9571 16.9487 48.9571 17.0757 48.9571 17.2238H50.6172C50.6172 17.0872 50.6172 16.9627 50.6172 16.8389C50.6172 12.6137 50.6172 8.38856 50.6172 4.16339C50.6172 3.12688 51.1239 2.62139 52.1611 2.62139C60.261 2.62139 68.3616 2.62139 76.4616 2.62139C77.493 2.62139 77.9998 3.13071 77.9998 4.16977C77.9998 8.38409 77.9998 12.5991 77.9998 16.8134C77.9998 16.9398 77.9998 17.0668 77.9998 17.2193H79.6598V16.8791C79.6598 12.2187 79.6598 7.55821 79.6598 2.89775C79.6598 1.69211 78.9233 0.960679 77.7113 0.96004C68.7727 0.96004 59.8334 0.96004 50.8948 0.96004C49.6892 0.96004 48.9584 1.69594 48.9565 2.90732C48.9558 3.52323 48.959 4.13913 48.9552 4.7544C48.9533 5.11947 48.7605 5.34286 48.4669 5.33456C48.1848 5.3269 48.0036 5.11118 48.0023 4.76333C47.9991 4.08361 47.994 3.40451 48.0036 2.72478C48.0259 1.21406 49.2124 0.017354 50.7238 0.00714215C52.6666 -0.00626097 54.6094 0.00331268 56.5522 0.00331268C63.5589 0.00331268 70.5655 0.00331268 77.5721 0.00331268C79.2309 0.00331268 80.1494 0.705381 80.5859 2.30546C80.591 2.32524 80.6063 2.34184 80.6172 2.36035V20.9607H80.6166ZM51.5733 17.2174H77.0456V16.8734C77.0456 12.6495 77.0456 8.42558 77.0456 4.20168C77.0456 3.65407 76.9677 3.57556 76.4239 3.57556C68.3476 3.57556 60.2713 3.57556 52.1949 3.57556C51.6511 3.57556 51.5739 3.65343 51.5739 4.20168C51.5739 8.41473 51.5739 12.6284 51.5739 16.8415C51.5739 16.9576 51.5739 17.0738 51.5739 17.2174H51.5733ZM68.0304 26.156C68.0138 26.0449 68.0068 25.9511 67.9851 25.8605C67.807 25.108 67.6143 24.3587 67.4541 23.603C67.4036 23.3643 67.3085 23.303 67.0762 23.3043C65.443 23.3139 63.809 23.3081 62.1751 23.3107C61.8694 23.3107 61.4763 23.2175 61.2835 23.3701C61.0908 23.5226 61.0914 23.9266 61.0199 24.224C60.8674 24.8597 60.7225 25.4967 60.5693 26.1566H68.0298L68.0304 26.156ZM64.3062 27.128C62.6085 27.128 60.9101 27.1261 59.2124 27.1287C58.5148 27.13 58.5735 27.0406 58.562 27.7797C58.5582 28.0312 58.6565 28.1135 58.8997 28.1135C62.5077 28.109 66.1163 28.1109 69.7243 28.1077C69.8143 28.1077 69.9783 28.0777 69.9834 28.0446C70.0198 27.7873 70.0523 27.5225 70.0204 27.2678C70.0128 27.2053 69.7626 27.1338 69.6234 27.1331C67.851 27.1242 66.0786 27.1274 64.3062 27.1274V27.128Z" fill="#1780B2"/>
<path d="M64.3151 21.9857C63.3602 21.987 62.5937 21.2256 62.5918 20.274C62.5899 19.3294 63.3654 18.5488 64.3074 18.5469C65.2507 18.545 66.0294 19.3217 66.0307 20.2663C66.0326 21.2179 65.2673 21.9845 64.3144 21.9864L64.3151 21.9857ZM65.0746 20.2682C65.0739 19.8514 64.7165 19.4972 64.3017 19.5036C63.897 19.51 63.5562 19.8502 63.5485 20.2555C63.5402 20.6786 63.8798 21.0258 64.3048 21.029C64.7306 21.0322 65.0752 20.6914 65.0746 20.2689V20.2682Z" fill="#1780B2"/>
<path d="M65.3093 7.88758C65.363 7.34763 65.4178 6.8632 65.4587 6.3775C65.5461 5.33907 66.2156 4.70785 67.2509 4.70721C67.5151 4.70721 67.787 4.69509 68.0423 4.74934C68.7629 4.90315 69.2665 5.50757 69.3398 6.25814C69.3845 6.71194 69.4381 7.16509 69.4694 7.62016C69.4828 7.82184 69.5537 7.88758 69.7592 7.89077C70.6629 7.90673 70.9297 8.16522 71.0184 9.07663C71.0267 9.16088 71.0554 9.24832 71.0433 9.32937C70.9418 10.0072 71.2827 10.304 71.8973 10.5152C72.9274 10.8695 73.9282 11.3118 74.9353 11.7311C75.4849 11.9602 75.7159 12.4893 75.5129 13.0025C75.3917 13.3082 75.1638 13.5009 74.8466 13.589C74.5007 13.6854 74.156 13.7837 73.7297 13.9043C74.0718 14.2362 74.3718 14.5272 74.6711 14.8195C74.7547 14.9012 74.8422 14.9804 74.9124 15.0723C75.0757 15.2855 75.0751 15.5063 74.8938 15.7073C74.7177 15.9033 74.449 15.9199 74.2384 15.7278C73.9409 15.4565 73.6595 15.1661 73.3799 14.8764C73.2925 14.7857 73.2331 14.6689 73.161 14.5642C73.1278 14.584 73.0946 14.6032 73.0615 14.623C72.9708 14.9421 72.8725 15.2593 72.7921 15.581C72.6913 15.9837 72.4717 16.2767 72.0556 16.3724C71.6477 16.4662 71.312 16.3386 71.0325 16.0163C70.9597 15.9326 70.797 15.8918 70.6757 15.8912C68.4897 15.8841 66.3037 15.8841 64.1177 15.888C63.8101 15.888 63.5242 15.8522 63.3046 15.6084C63.0621 15.3391 62.9683 15.0097 63.1278 14.6951C63.4782 14.0051 63.4782 13.2616 63.5363 12.5251C63.632 11.3092 63.7137 10.0914 63.8056 8.87558C63.851 8.27755 64.2416 7.90992 64.8434 7.88886C64.9896 7.88375 65.1364 7.88822 65.31 7.88822L65.3093 7.88758ZM70.0445 8.86984H64.7962C64.4905 10.8918 64.6685 12.938 64.1273 14.9127H70.5512C70.4932 14.7608 70.4466 14.6332 70.3955 14.5081C70.0055 13.5469 69.6162 12.5851 69.2237 11.6245C69.0456 11.1892 69.0386 10.7578 69.359 10.401C69.5549 10.1827 69.8339 10.0391 70.1185 9.8304C70.0974 9.5585 70.0713 9.22279 70.0445 8.86984ZM74.6398 12.6553C74.5147 12.5978 74.4496 12.5653 74.3826 12.5378C73.0985 12.0157 71.8162 11.4898 70.5283 10.978C70.4102 10.9307 70.2576 10.969 70.1217 10.9677C70.1306 11.096 70.1077 11.2364 70.153 11.3501C70.6585 12.6182 71.1742 13.882 71.6879 15.147C71.7211 15.2287 71.7613 15.3072 71.8328 15.4597C71.9777 14.9293 72.1181 14.4768 72.2228 14.0166C72.3441 13.4824 72.6498 13.1703 73.1897 13.0522C73.6588 12.9495 74.1177 12.8001 74.6398 12.6546V12.6553ZM68.5363 7.86652C68.4852 7.35082 68.4386 6.85746 68.387 6.36473C68.3474 5.99072 68.1195 5.7284 67.794 5.67224C67.1232 5.55608 66.6726 5.69649 66.4971 6.07561C66.4882 6.09475 66.478 6.11454 66.4754 6.13496C66.4046 6.70683 66.3344 7.2787 66.2629 7.86588H68.5363V7.86652Z" fill="#1780B2"/>
<path d="M57.4622 5.5733C58.2256 5.5733 58.9896 5.56947 59.7529 5.57394C60.7977 5.58032 61.3581 6.14836 61.3619 7.19444C61.3632 7.50208 61.3728 7.81035 61.3581 8.1167C61.3185 8.93685 60.7537 9.52531 59.9373 9.53488C58.3041 9.55403 56.6708 9.55531 55.0376 9.53424C54.211 9.52339 53.6411 8.90877 53.6219 8.07841C53.6143 7.74971 53.6175 7.42102 53.6206 7.09232C53.6302 6.18666 54.1957 5.59883 55.1084 5.57841C55.8928 5.56054 56.6778 5.57458 57.4629 5.57458V5.5733H57.4622ZM57.4973 8.58709C58.2709 8.58709 59.0451 8.59092 59.8186 8.58518C60.2348 8.58198 60.3962 8.41796 60.4052 8.0031C60.4116 7.6961 60.4135 7.38847 60.4045 7.08084C60.3931 6.70427 60.2322 6.53386 59.8525 6.53195C58.2734 6.52556 56.6938 6.52492 55.1148 6.53322C54.7427 6.53514 54.585 6.71512 54.5767 7.09488C54.5704 7.38081 54.5735 7.66738 54.5755 7.95331C54.5793 8.42242 54.7382 8.58326 55.208 8.58518C55.9713 8.58837 56.734 8.58581 57.4973 8.58581V8.58709Z" fill="#1780B2"/>
<path d="M57.4945 13.969C56.7203 13.969 55.9461 13.9716 55.172 13.969C54.2057 13.9652 53.6255 13.3882 53.6191 12.429C53.6172 12.1003 53.6102 11.7709 53.6217 11.4429C53.6497 10.6202 54.2414 10.0209 55.0666 10.0145C56.6789 10.0024 58.2911 10.0036 59.9033 10.0145C60.6985 10.0196 61.2831 10.5519 61.3451 11.3382C61.3808 11.7907 61.3808 12.2522 61.3368 12.704C61.264 13.4508 60.696 13.9435 59.9454 13.9697C59.9243 13.9703 59.9033 13.971 59.8816 13.971C59.0863 13.971 58.2904 13.971 57.4952 13.971L57.4945 13.969ZM57.4671 13.0136C58.2623 13.0136 59.057 13.0174 59.8522 13.0117C60.2307 13.0091 60.3922 12.8483 60.403 12.4685C60.4126 12.1405 60.4145 11.8111 60.4017 11.4831C60.3883 11.1493 60.2128 10.9693 59.8809 10.968C58.2911 10.9616 56.7012 10.9616 55.1113 10.968C54.7609 10.9693 54.588 11.1506 54.5771 11.5022C54.5682 11.799 54.5726 12.0958 54.5752 12.3926C54.579 12.8623 54.7316 13.0123 55.2103 13.0136C55.9627 13.0155 56.7152 13.0136 57.4677 13.0136H57.4671Z" fill="#1780B2"/>
</g>
<path d="M6.71555 37.3V40.8H11.4155V43.02H6.71555V46.72H12.0155V49H3.91555V35.02H12.0155V37.3H6.71555ZM13.4801 42C13.4801 40.6267 13.7867 39.4 14.4001 38.32C15.0267 37.2267 15.8734 36.38 16.9401 35.78C18.0201 35.1667 19.2267 34.86 20.5601 34.86C22.1201 34.86 23.4867 35.26 24.6601 36.06C25.8334 36.86 26.6534 37.9667 27.1201 39.38H23.9001C23.5801 38.7133 23.1267 38.2133 22.5401 37.88C21.9667 37.5467 21.3001 37.38 20.5401 37.38C19.7267 37.38 19.0001 37.5733 18.3601 37.96C17.7334 38.3333 17.2401 38.8667 16.8801 39.56C16.5334 40.2533 16.3601 41.0667 16.3601 42C16.3601 42.92 16.5334 43.7333 16.8801 44.44C17.2401 45.1333 17.7334 45.6733 18.3601 46.06C19.0001 46.4333 19.7267 46.62 20.5401 46.62C21.3001 46.62 21.9667 46.4533 22.5401 46.12C23.1267 45.7733 23.5801 45.2667 23.9001 44.6H27.1201C26.6534 46.0267 25.8334 47.14 24.6601 47.94C23.5001 48.7267 22.1334 49.12 20.5601 49.12C19.2267 49.12 18.0201 48.82 16.9401 48.22C15.8734 47.6067 15.0267 46.76 14.4001 45.68C13.7867 44.6 13.4801 43.3733 13.4801 42ZM35.5916 49.14C34.285 49.14 33.085 48.8333 31.9916 48.22C30.8983 47.6067 30.0316 46.76 29.3916 45.68C28.7516 44.5867 28.4316 43.3533 28.4316 41.98C28.4316 40.62 28.7516 39.4 29.3916 38.32C30.0316 37.2267 30.8983 36.3733 31.9916 35.76C33.085 35.1467 34.285 34.84 35.5916 34.84C36.9116 34.84 38.1116 35.1467 39.1916 35.76C40.285 36.3733 41.145 37.2267 41.7716 38.32C42.4116 39.4 42.7316 40.62 42.7316 41.98C42.7316 43.3533 42.4116 44.5867 41.7716 45.68C41.145 46.76 40.285 47.6067 39.1916 48.22C38.0983 48.8333 36.8983 49.14 35.5916 49.14ZM35.5916 46.64C36.4316 46.64 37.1716 46.4533 37.8116 46.08C38.4516 45.6933 38.9516 45.1467 39.3116 44.44C39.6716 43.7333 39.8516 42.9133 39.8516 41.98C39.8516 41.0467 39.6716 40.2333 39.3116 39.54C38.9516 38.8333 38.4516 38.2933 37.8116 37.92C37.1716 37.5467 36.4316 37.36 35.5916 37.36C34.7516 37.36 34.005 37.5467 33.3516 37.92C32.7116 38.2933 32.2116 38.8333 31.8516 39.54C31.4916 40.2333 31.3116 41.0467 31.3116 41.98C31.3116 42.9133 31.4916 43.7333 31.8516 44.44C32.2116 45.1467 32.7116 45.6933 33.3516 46.08C34.005 46.4533 34.7516 46.64 35.5916 46.64ZM59.6348 35.04V49H56.8348V39.92L53.0948 49H50.9748L47.2148 39.92V49H44.4148V35.04H47.5948L52.0348 45.42L56.4748 35.04H59.6348ZM77.223 35.04V49H74.423V39.92L70.683 49H68.563L64.803 39.92V49H62.003V35.04H65.183L69.623 45.42L74.063 35.04H77.223ZM82.3913 37.3V40.8H87.0913V43.02H82.3913V46.72H87.6913V49H79.5913V35.02H87.6913V37.3H82.3913ZM97.0359 49L93.9559 43.56H92.6359V49H89.8359V35.04H95.0759C96.1559 35.04 97.0759 35.2333 97.8359 35.62C98.5959 35.9933 99.1625 36.5067 99.5359 37.16C99.9225 37.8 100.116 38.52 100.116 39.32C100.116 40.24 99.8492 41.0733 99.3159 41.82C98.7825 42.5533 97.9892 43.06 96.9359 43.34L100.276 49H97.0359ZM92.6359 41.46H94.9759C95.7359 41.46 96.3025 41.28 96.6759 40.92C97.0492 40.5467 97.2359 40.0333 97.2359 39.38C97.2359 38.74 97.0492 38.2467 96.6759 37.9C96.3025 37.54 95.7359 37.36 94.9759 37.36H92.6359V41.46ZM101.568 42C101.568 40.6267 101.875 39.4 102.488 38.32C103.115 37.2267 103.962 36.38 105.028 35.78C106.108 35.1667 107.315 34.86 108.648 34.86C110.208 34.86 111.575 35.26 112.748 36.06C113.922 36.86 114.742 37.9667 115.208 39.38H111.988C111.668 38.7133 111.215 38.2133 110.628 37.88C110.055 37.5467 109.388 37.38 108.628 37.38C107.815 37.38 107.088 37.5733 106.448 37.96C105.822 38.3333 105.328 38.8667 104.968 39.56C104.622 40.2533 104.448 41.0667 104.448 42C104.448 42.92 104.622 43.7333 104.968 44.44C105.328 45.1333 105.822 45.6733 106.448 46.06C107.088 46.4333 107.815 46.62 108.628 46.62C109.388 46.62 110.055 46.4533 110.628 46.12C111.215 45.7733 111.668 45.2667 111.988 44.6H115.208C114.742 46.0267 113.922 47.14 112.748 47.94C111.588 48.7267 110.222 49.12 108.648 49.12C107.315 49.12 106.108 48.82 105.028 48.22C103.962 47.6067 103.115 46.76 102.488 45.68C101.875 44.6 101.568 43.3733 101.568 42ZM120 37.3V40.8H124.7V43.02H120V46.72H125.3V49H117.2V35.02H125.3V37.3H120Z" fill="#262666"/>
<defs>
<clipPath id="clip0_1_1849">
<rect width="32.6175" height="29.0688" fill="white" transform="translate(48)"/>
</clipPath>
</defs>
</svg>
