<svg width="246" height="111" viewBox="0 0 246 111" fill="none" xmlns="http://www.w3.org/2000/svg">
<g clip-path="url(#clip0_1_1968)">
<path d="M126.849 42L109.923 83.2238L93 42H100.896L109.923 64.9192L118.952 42H126.849Z" fill="white"/>
<path d="M136.029 49.0993V56.0327H149.483V63.132H136.029V72.237H149.901V79.3363H128.727V42H149.901V49.0993H136.029Z" fill="white"/>
<path d="M182.683 79.3363H174.445L167.388 66.8227L160.043 79.3363H151.777L163.334 59.8892L153.172 42H161.409L167.625 52.9729L173.982 42H182.249L171.635 59.9109L182.683 79.3363Z" fill="white"/>
<path d="M191.816 49.0993V56.0327H205.27V63.132H191.816V72.237H205.686V79.3363H184.512V42H205.686V49.0993H191.816Z" fill="white"/>
<path d="M229.35 45.7954C225.347 42.7743 221.048 42.1543 215.826 42.1543H207.533V79.4906H215.722C220.983 79.4906 224.844 78.9062 229.018 75.9177C233.795 72.4998 236.425 67.1475 236.425 60.8496C236.425 54.5517 233.849 49.235 229.35 45.7954ZM224.779 70.1003C222.097 72.12 218.907 72.3913 216.139 72.3913H214.837V49.2536H216.139C218.769 49.2536 222.133 49.5078 224.837 51.4965C226.908 53.0295 229.123 56.2924 229.123 60.8496C229.123 66.1694 226.078 69.0974 224.779 70.1003Z" fill="white"/>
</g>
<path d="M130.847 88.5606C130.808 88.2368 130.653 87.9854 130.38 87.8064C130.107 87.6274 129.773 87.5379 129.377 87.5379C129.087 87.5379 128.833 87.5848 128.616 87.6785C128.401 87.7723 128.232 87.9012 128.111 88.0653C127.992 88.2293 127.932 88.4157 127.932 88.6246C127.932 88.7993 127.974 88.9495 128.057 89.0752C128.142 89.1988 128.251 89.3021 128.383 89.3852C128.515 89.4662 128.653 89.5333 128.798 89.5866C128.943 89.6377 129.076 89.6792 129.198 89.7112L129.862 89.8902C130.033 89.9349 130.222 89.9967 130.431 90.0756C130.642 90.1544 130.844 90.262 131.035 90.3983C131.229 90.5326 131.389 90.7052 131.515 90.9161C131.64 91.127 131.703 91.3859 131.703 91.6927C131.703 92.0464 131.611 92.366 131.425 92.6515C131.242 92.9371 130.974 93.164 130.62 93.3323C130.268 93.5006 129.841 93.5848 129.338 93.5848C128.869 93.5848 128.464 93.5091 128.121 93.3579C127.78 93.2066 127.511 92.9956 127.315 92.7251C127.121 92.4545 127.012 92.1402 126.986 91.7822H127.804C127.825 92.0294 127.909 92.2339 128.053 92.3959C128.2 92.5557 128.386 92.675 128.61 92.7538C128.835 92.8305 129.078 92.8689 129.338 92.8689C129.641 92.8689 129.912 92.8199 130.153 92.7219C130.394 92.6217 130.585 92.4832 130.725 92.3064C130.866 92.1274 130.936 91.9186 130.936 91.68C130.936 91.4626 130.876 91.2858 130.754 91.1494C130.633 91.0131 130.473 90.9023 130.275 90.817C130.077 90.7318 129.862 90.6572 129.632 90.5933L128.827 90.3632C128.316 90.2162 127.911 90.0063 127.612 89.7336C127.314 89.4608 127.165 89.104 127.165 88.6629C127.165 88.2964 127.264 87.9768 127.462 87.7041C127.662 87.4292 127.931 87.2162 128.268 87.0649C128.606 86.9115 128.985 86.8348 129.402 86.8348C129.824 86.8348 130.199 86.9104 130.527 87.0617C130.855 87.2108 131.115 87.4154 131.307 87.6753C131.501 87.9353 131.603 88.2304 131.614 88.5606H130.847ZM145.819 90.197C145.819 90.8873 145.695 91.4839 145.445 91.9868C145.196 92.4896 144.854 92.8774 144.419 93.1501C143.985 93.4229 143.488 93.5592 142.93 93.5592C142.372 93.5592 141.875 93.4229 141.441 93.1501C141.006 92.8774 140.664 92.4896 140.415 91.9868C140.165 91.4839 140.041 90.8873 140.041 90.197C140.041 89.5067 140.165 88.9101 140.415 88.4072C140.664 87.9044 141.006 87.5166 141.441 87.2439C141.875 86.9711 142.372 86.8348 142.93 86.8348C143.488 86.8348 143.985 86.9711 144.419 87.2439C144.854 87.5166 145.196 87.9044 145.445 88.4072C145.695 88.9101 145.819 89.5067 145.819 90.197ZM145.052 90.197C145.052 89.6302 144.957 89.1519 144.768 88.762C144.58 88.3721 144.326 88.077 144.004 87.8767C143.684 87.6764 143.326 87.5763 142.93 87.5763C142.534 87.5763 142.175 87.6764 141.853 87.8767C141.533 88.077 141.279 88.3721 141.089 88.762C140.902 89.1519 140.808 89.6302 140.808 90.197C140.808 90.7638 140.902 91.2421 141.089 91.632C141.279 92.0219 141.533 92.317 141.853 92.5173C142.175 92.7176 142.534 92.8177 142.93 92.8177C143.326 92.8177 143.684 92.7176 144.004 92.5173C144.326 92.317 144.58 92.0219 144.768 91.632C144.957 91.2421 145.052 90.7638 145.052 90.197ZM154.442 93.4697V86.9243H155.235V92.7666H158.277V93.4697H154.442ZM171.09 86.9243H171.883V91.2581C171.883 91.7055 171.777 92.105 171.566 92.4566C171.357 92.806 171.062 93.0819 170.681 93.2844C170.299 93.4846 169.852 93.5848 169.338 93.5848C168.825 93.5848 168.378 93.4846 167.996 93.2844C167.615 93.0819 167.319 92.806 167.108 92.4566C166.899 92.105 166.794 91.7055 166.794 91.2581V86.9243H167.587V91.1942C167.587 91.5138 167.657 91.7982 167.798 92.0475C167.939 92.2947 168.139 92.4896 168.399 92.6324C168.661 92.773 168.974 92.8433 169.338 92.8433C169.703 92.8433 170.016 92.773 170.278 92.6324C170.54 92.4896 170.74 92.2947 170.879 92.0475C171.02 91.7982 171.09 91.5138 171.09 91.1942V86.9243ZM180.397 87.6274V86.9243H185.306V87.6274H183.248V93.4697H182.456V87.6274H180.397ZM194.612 86.9243V93.4697H193.82V86.9243H194.612ZM209.014 90.197C209.014 90.8873 208.89 91.4839 208.64 91.9868C208.391 92.4896 208.049 92.8774 207.614 93.1501C207.18 93.4229 206.683 93.5592 206.125 93.5592C205.567 93.5592 205.07 93.4229 204.636 93.1501C204.201 92.8774 203.859 92.4896 203.61 91.9868C203.361 91.4839 203.236 90.8873 203.236 90.197C203.236 89.5067 203.361 88.9101 203.61 88.4072C203.859 87.9044 204.201 87.5166 204.636 87.2439C205.07 86.9711 205.567 86.8348 206.125 86.8348C206.683 86.8348 207.18 86.9711 207.614 87.2439C208.049 87.5166 208.391 87.9044 208.64 88.4072C208.89 88.9101 209.014 89.5067 209.014 90.197ZM208.247 90.197C208.247 89.6302 208.152 89.1519 207.963 88.762C207.775 88.3721 207.521 88.077 207.199 87.8767C206.879 87.6764 206.521 87.5763 206.125 87.5763C205.729 87.5763 205.37 87.6764 205.048 87.8767C204.728 88.077 204.474 88.3721 204.284 88.762C204.097 89.1519 204.003 89.6302 204.003 90.197C204.003 90.7638 204.097 91.2421 204.284 91.632C204.474 92.0219 204.728 92.317 205.048 92.5173C205.37 92.7176 205.729 92.8177 206.125 92.8177C206.521 92.8177 206.879 92.7176 207.199 92.5173C207.521 92.317 207.775 92.0219 207.963 91.632C208.152 91.2421 208.247 90.7638 208.247 90.197ZM222.827 86.9243V93.4697H222.06L218.494 88.3305H218.43V93.4697H217.637V86.9243H218.404L221.984 92.0763H222.048V86.9243H222.827ZM235.283 88.5606C235.245 88.2368 235.089 87.9854 234.816 87.8064C234.544 87.6274 234.209 87.5379 233.813 87.5379C233.523 87.5379 233.269 87.5848 233.052 87.6785C232.837 87.7723 232.669 87.9012 232.547 88.0653C232.428 88.2293 232.368 88.4157 232.368 88.6246C232.368 88.7993 232.41 88.9495 232.493 89.0752C232.578 89.1988 232.687 89.3021 232.819 89.3852C232.951 89.4662 233.089 89.5333 233.234 89.5866C233.379 89.6377 233.512 89.6792 233.634 89.7112L234.299 89.8902C234.469 89.9349 234.659 89.9967 234.867 90.0756C235.078 90.1544 235.28 90.262 235.472 90.3983C235.665 90.5326 235.825 90.7052 235.951 90.9161C236.077 91.127 236.14 91.3859 236.14 91.6927C236.14 92.0464 236.047 92.366 235.861 92.6515C235.678 92.9371 235.41 93.164 235.056 93.3323C234.704 93.5006 234.277 93.5848 233.774 93.5848C233.306 93.5848 232.9 93.5091 232.557 93.3579C232.216 93.2066 231.947 92.9956 231.751 92.7251C231.557 92.4545 231.448 92.1402 231.422 91.7822H232.24C232.262 92.0294 232.345 92.2339 232.49 92.3959C232.637 92.5557 232.822 92.675 233.046 92.7538C233.272 92.8305 233.515 92.8689 233.774 92.8689C234.077 92.8689 234.349 92.8199 234.589 92.7219C234.83 92.6217 235.021 92.4832 235.162 92.3064C235.302 92.1274 235.372 91.9186 235.372 91.68C235.372 91.4626 235.312 91.2858 235.19 91.1494C235.069 91.0131 234.909 90.9023 234.711 90.817C234.513 90.7318 234.299 90.6572 234.068 90.5933L233.263 90.3632C232.752 90.2162 232.347 90.0063 232.049 89.7336C231.75 89.4608 231.601 89.104 231.601 88.6629C231.601 88.2964 231.7 87.9768 231.898 87.7041C232.099 87.4292 232.367 87.2162 232.704 87.0649C233.043 86.9115 233.421 86.8348 233.838 86.8348C234.26 86.8348 234.635 86.9104 234.963 87.0617C235.292 87.2108 235.551 87.4154 235.743 87.6753C235.937 87.9353 236.039 88.2304 236.05 88.5606H235.283Z" fill="white"/>
<g filter="url(#filter0_d_1_1968)">
<path d="M40.2879 32.255L40.2595 31.7188L69.7886 32.1845L65.4098 39.4616L40.2879 32.255Z" fill="white"/>
</g>
<g filter="url(#filter1_d_1_1968)">
<path d="M76.9682 22.8635L69.8971 32.107L40.3789 31.9523L47.3693 23.4567L76.9682 22.8635Z" fill="white"/>
</g>
<g filter="url(#filter2_d_1_1968)">
<path d="M92 22.6494L82.0211 39.2331L72.8249 54.5161L58.9031 49.6823L75.1432 22.6931L92 22.6494Z" fill="white"/>
</g>
<g filter="url(#filter3_d_1_1968)">
<path d="M0 23.2266H19.3545H37.191L40.227 37.6476H8.72851L0 23.2266Z" fill="white"/>
</g>
<g filter="url(#filter4_d_1_1968)">
<path d="M34.8926 62.5832L34.4479 62.884L19.6222 37.3422L28.1151 37.3422L34.8926 62.5832Z" fill="white"/>
</g>
<g filter="url(#filter5_d_1_1968)">
<path d="M7.93211 35.9953L19.498 37.2883L34.5847 62.6605L23.7012 61.051L7.93211 35.9953Z" fill="white"/>
</g>
<g filter="url(#filter6_d_1_1968)">
<path d="M63.9166 52.9641L64.3899 53.2174L48.697 78.2358L44.7401 70.7209L63.9166 52.9641Z" fill="white"/>
</g>
<g filter="url(#filter7_d_1_1968)">
<path d="M52.9523 89.2047L48.7078 78.3684L64.129 53.1982L67.7755 63.5782L52.9523 89.2047Z" fill="white"/>
</g>
<g filter="url(#filter8_d_1_1968)">
<path d="M45.3496 102.173L36.3323 85.0473L28.0222 69.2649L39.3679 59.8598L54.0432 87.7308L45.3496 102.173Z" fill="white"/>
</g>
<defs>
<filter id="filter0_d_1_1968" x="19.2595" y="14.7188" width="63.5291" height="41.7432" filterUnits="userSpaceOnUse" color-interpolation-filters="sRGB">
<feFlood flood-opacity="0" result="BackgroundImageFix"/>
<feColorMatrix in="SourceAlpha" type="matrix" values="0 0 0 0 0 0 0 0 0 0 0 0 0 0 0 0 0 0 127 0" result="hardAlpha"/>
<feOffset dx="-4"/>
<feGaussianBlur stdDeviation="8.5"/>
<feComposite in2="hardAlpha" operator="out"/>
<feColorMatrix type="matrix" values="0 0 0 0 0.270588 0 0 0 0 0.619608 0 0 0 0 0.839216 0 0 0 1 0"/>
<feBlend mode="normal" in2="BackgroundImageFix" result="effect1_dropShadow_1_1968"/>
<feBlend mode="normal" in="SourceGraphic" in2="effect1_dropShadow_1_1968" result="shape"/>
</filter>
<filter id="filter1_d_1_1968" x="40.3789" y="22.8633" width="44.5894" height="17.2441" filterUnits="userSpaceOnUse" color-interpolation-filters="sRGB">
<feFlood flood-opacity="0" result="BackgroundImageFix"/>
<feColorMatrix in="SourceAlpha" type="matrix" values="0 0 0 0 0 0 0 0 0 0 0 0 0 0 0 0 0 0 127 0" result="hardAlpha"/>
<feOffset dx="4" dy="4"/>
<feGaussianBlur stdDeviation="2"/>
<feComposite in2="hardAlpha" operator="out"/>
<feColorMatrix type="matrix" values="0 0 0 0 0 0 0 0 0 0 0 0 0 0 0 0 0 0 0.25 0"/>
<feBlend mode="normal" in2="BackgroundImageFix" result="effect1_dropShadow_1_1968"/>
<feBlend mode="normal" in="SourceGraphic" in2="effect1_dropShadow_1_1968" result="shape"/>
</filter>
<filter id="filter2_d_1_1968" x="58.9031" y="22.6494" width="41.0969" height="39.8672" filterUnits="userSpaceOnUse" color-interpolation-filters="sRGB">
<feFlood flood-opacity="0" result="BackgroundImageFix"/>
<feColorMatrix in="SourceAlpha" type="matrix" values="0 0 0 0 0 0 0 0 0 0 0 0 0 0 0 0 0 0 127 0" result="hardAlpha"/>
<feOffset dx="4" dy="4"/>
<feGaussianBlur stdDeviation="2"/>
<feComposite in2="hardAlpha" operator="out"/>
<feColorMatrix type="matrix" values="0 0 0 0 0 0 0 0 0 0 0 0 0 0 0 0 0 0 0.25 0"/>
<feBlend mode="normal" in2="BackgroundImageFix" result="effect1_dropShadow_1_1968"/>
<feBlend mode="normal" in="SourceGraphic" in2="effect1_dropShadow_1_1968" result="shape"/>
</filter>
<filter id="filter3_d_1_1968" x="0" y="23.2266" width="48.2271" height="22.4209" filterUnits="userSpaceOnUse" color-interpolation-filters="sRGB">
<feFlood flood-opacity="0" result="BackgroundImageFix"/>
<feColorMatrix in="SourceAlpha" type="matrix" values="0 0 0 0 0 0 0 0 0 0 0 0 0 0 0 0 0 0 127 0" result="hardAlpha"/>
<feOffset dx="4" dy="4"/>
<feGaussianBlur stdDeviation="2"/>
<feComposite in2="hardAlpha" operator="out"/>
<feColorMatrix type="matrix" values="0 0 0 0 0 0 0 0 0 0 0 0 0 0 0 0 0 0 0.25 0"/>
<feBlend mode="normal" in2="BackgroundImageFix" result="effect1_dropShadow_1_1968"/>
<feBlend mode="normal" in="SourceGraphic" in2="effect1_dropShadow_1_1968" result="shape"/>
</filter>
<filter id="filter4_d_1_1968" x="19.6223" y="37.3418" width="23.2703" height="33.542" filterUnits="userSpaceOnUse" color-interpolation-filters="sRGB">
<feFlood flood-opacity="0" result="BackgroundImageFix"/>
<feColorMatrix in="SourceAlpha" type="matrix" values="0 0 0 0 0 0 0 0 0 0 0 0 0 0 0 0 0 0 127 0" result="hardAlpha"/>
<feOffset dx="4" dy="4"/>
<feGaussianBlur stdDeviation="2"/>
<feComposite in2="hardAlpha" operator="out"/>
<feColorMatrix type="matrix" values="0 0 0 0 0 0 0 0 0 0 0 0 0 0 0 0 0 0 0.25 0"/>
<feBlend mode="normal" in2="BackgroundImageFix" result="effect1_dropShadow_1_1968"/>
<feBlend mode="normal" in="SourceGraphic" in2="effect1_dropShadow_1_1968" result="shape"/>
</filter>
<filter id="filter5_d_1_1968" x="7.93213" y="35.9951" width="34.6526" height="34.665" filterUnits="userSpaceOnUse" color-interpolation-filters="sRGB">
<feFlood flood-opacity="0" result="BackgroundImageFix"/>
<feColorMatrix in="SourceAlpha" type="matrix" values="0 0 0 0 0 0 0 0 0 0 0 0 0 0 0 0 0 0 127 0" result="hardAlpha"/>
<feOffset dx="4" dy="4"/>
<feGaussianBlur stdDeviation="2"/>
<feComposite in2="hardAlpha" operator="out"/>
<feColorMatrix type="matrix" values="0 0 0 0 0 0 0 0 0 0 0 0 0 0 0 0 0 0 0.25 0"/>
<feBlend mode="normal" in2="BackgroundImageFix" result="effect1_dropShadow_1_1968"/>
<feBlend mode="normal" in="SourceGraphic" in2="effect1_dropShadow_1_1968" result="shape"/>
</filter>
<filter id="filter6_d_1_1968" x="23.74" y="31.9639" width="53.6499" height="59.2715" filterUnits="userSpaceOnUse" color-interpolation-filters="sRGB">
<feFlood flood-opacity="0" result="BackgroundImageFix"/>
<feColorMatrix in="SourceAlpha" type="matrix" values="0 0 0 0 0 0 0 0 0 0 0 0 0 0 0 0 0 0 127 0" result="hardAlpha"/>
<feOffset dx="-4" dy="-4"/>
<feGaussianBlur stdDeviation="8.5"/>
<feComposite in2="hardAlpha" operator="out"/>
<feColorMatrix type="matrix" values="0 0 0 0 0.270588 0 0 0 0 0.619608 0 0 0 0 0.839216 0 0 0 1 0"/>
<feBlend mode="normal" in2="BackgroundImageFix" result="effect1_dropShadow_1_1968"/>
<feBlend mode="normal" in="SourceGraphic" in2="effect1_dropShadow_1_1968" result="shape"/>
</filter>
<filter id="filter7_d_1_1968" x="40.7078" y="45.1982" width="27.0679" height="44.0068" filterUnits="userSpaceOnUse" color-interpolation-filters="sRGB">
<feFlood flood-opacity="0" result="BackgroundImageFix"/>
<feColorMatrix in="SourceAlpha" type="matrix" values="0 0 0 0 0 0 0 0 0 0 0 0 0 0 0 0 0 0 127 0" result="hardAlpha"/>
<feOffset dx="-4" dy="-4"/>
<feGaussianBlur stdDeviation="2"/>
<feComposite in2="hardAlpha" operator="out"/>
<feColorMatrix type="matrix" values="0 0 0 0 0 0 0 0 0 0 0 0 0 0 0 0 0 0 0.25 0"/>
<feBlend mode="normal" in2="BackgroundImageFix" result="effect1_dropShadow_1_1968"/>
<feBlend mode="normal" in="SourceGraphic" in2="effect1_dropShadow_1_1968" result="shape"/>
</filter>
<filter id="filter8_d_1_1968" x="28.0222" y="59.8594" width="34.021" height="50.3135" filterUnits="userSpaceOnUse" color-interpolation-filters="sRGB">
<feFlood flood-opacity="0" result="BackgroundImageFix"/>
<feColorMatrix in="SourceAlpha" type="matrix" values="0 0 0 0 0 0 0 0 0 0 0 0 0 0 0 0 0 0 127 0" result="hardAlpha"/>
<feOffset dx="4" dy="4"/>
<feGaussianBlur stdDeviation="2"/>
<feComposite in2="hardAlpha" operator="out"/>
<feColorMatrix type="matrix" values="0 0 0 0 0 0 0 0 0 0 0 0 0 0 0 0 0 0 0.25 0"/>
<feBlend mode="normal" in2="BackgroundImageFix" result="effect1_dropShadow_1_1968"/>
<feBlend mode="normal" in="SourceGraphic" in2="effect1_dropShadow_1_1968" result="shape"/>
</filter>
<clipPath id="clip0_1_1968">
<rect width="143.425" height="41.2238" fill="white" transform="translate(93 42)"/>
</clipPath>
</defs>
</svg>
